<svg width="44" height="19" viewBox="0 0 44 19" fill="none" xmlns="http://www.w3.org/2000/svg">
<g filter="url(#filter0_d_4_3)">
<path d="M7.816 10.12C7.792 10.12 7.752 10.072 7.696 9.976C7.64 9.872 7.568 9.82 7.48 9.82C7.4 9.82 7.308 9.884 7.204 10.012C7.108 10.14 7.032 10.204 6.976 10.204C6.44 10.204 5.96 10.16 5.536 10.072C5.112 9.992 4.824 9.908 4.672 9.82L4.432 9.688C4.384 9.64 4.328 9.392 4.264 8.944C4.208 8.488 4.18 8.076 4.18 7.708C4.18 7.652 4.34 7.52 4.66 7.312L4.816 7.204C4.896 7.148 5.096 7.096 5.416 7.048C5.424 7.048 5.428 7.08 5.428 7.144L5.416 7.408L5.728 8.176C5.768 8.2 5.908 8.256 6.148 8.344C6.396 8.424 6.58 8.464 6.7 8.464C6.916 8.464 7.132 8.336 7.348 8.08C7.572 7.816 7.684 7.632 7.684 7.528C7.684 7.344 7.576 7.104 7.36 6.808L7.252 6.652C6.668 6.284 6.316 6.1 6.196 6.1C6.052 6.14 5.956 6.16 5.908 6.16C5.868 6.16 5.808 6.112 5.728 6.016C5.656 5.92 5.62 5.856 5.62 5.824L5.704 5.464C5.704 5.4 5.62 5.344 5.452 5.296L5.116 5.356C5.028 5.356 4.828 5.156 4.516 4.756C4.212 4.356 4.06 4.116 4.06 4.036C4.06 3.956 4.112 3.756 4.216 3.436C4.328 3.116 4.496 2.736 4.72 2.296C4.944 1.848 5.18 1.5 5.428 1.252C5.596 1.14 5.884 1.04 6.292 0.952C6.708 0.864 7.148 0.819999 7.612 0.819999C7.748 1.036 7.916 1.144 8.116 1.144C8.292 1.064 8.38 0.924 8.38 0.723999C8.38 0.7 8.512 0.688 8.776 0.688C9.304 0.688 9.568 0.756 9.568 0.891999C9.576 1.028 9.58 1.212 9.58 1.444C9.58 1.676 9.572 1.856 9.556 1.984C9.644 2.368 9.688 2.596 9.688 2.668V2.68C9.64 2.776 9.508 2.896 9.292 3.04C9.076 3.176 8.94 3.244 8.884 3.244C8.836 3.244 8.812 3.232 8.812 3.208C8.812 3.064 8.656 2.872 8.344 2.632C8.04 2.384 7.76 2.26 7.504 2.26C7.352 2.26 7.152 2.392 6.904 2.656C6.656 2.912 6.532 3.128 6.532 3.304C6.572 3.504 6.656 3.604 6.784 3.604C6.856 3.604 6.94 3.56 7.036 3.472H7.048C7.12 3.472 7.356 3.612 7.756 3.892C8.164 4.164 8.38 4.336 8.404 4.408C8.5 4.392 8.58 4.384 8.644 4.384C8.716 4.384 8.768 4.392 8.8 4.408C8.992 4.56 9.192 4.768 9.4 5.032C9.608 5.288 9.728 5.456 9.76 5.536C9.944 5.96 10.036 6.644 10.036 7.588C10.036 7.876 9.728 8.372 9.112 9.076C8.504 9.772 8.072 10.12 7.816 10.12ZM14.634 0.976L16.086 0.879999C16.15 0.879999 16.186 0.883999 16.194 0.891999C16.242 0.94 16.326 1.24 16.446 1.792C16.574 2.336 16.638 2.764 16.638 3.076C16.638 3.14 16.518 3.256 16.278 3.424C16.046 3.584 15.854 3.664 15.702 3.664C15.686 3.664 15.658 3.6 15.618 3.472C15.482 3.032 15.302 2.7 15.078 2.476C14.79 2.372 14.578 2.32 14.442 2.32C14.306 2.32 14.222 2.328 14.19 2.344C14.166 2.352 14.126 2.38 14.07 2.428C14.022 2.476 13.998 2.54 13.998 2.62C14.366 2.788 14.55 2.9 14.55 2.956C14.51 3.476 14.49 3.988 14.49 4.492C14.298 4.652 14.202 4.756 14.202 4.804C14.202 4.908 14.234 4.992 14.298 5.056C14.362 5.12 14.426 5.164 14.49 5.188C14.554 5.212 14.586 5.228 14.586 5.236C14.538 6.1 14.514 6.824 14.514 7.408C14.514 7.984 14.53 8.368 14.562 8.56C14.746 9.016 14.838 9.344 14.838 9.544C14.838 9.608 14.742 9.684 14.55 9.772C14.366 9.86 14.214 9.92 14.094 9.952C13.894 10 13.718 10.1 13.566 10.252C13.134 10.252 12.774 10.232 12.486 10.192C12.206 10.152 12.03 10.112 11.958 10.072L11.862 10.012L12.066 9.28C12.082 9.256 12.09 9.132 12.09 8.908L12.078 7.996C12.078 7.868 12.082 7.804 12.09 7.804C12.186 7.804 12.282 7.7 12.378 7.492C12.378 7.452 12.306 7.36 12.162 7.216C12.026 7.072 11.958 6.984 11.958 6.952L12.138 6.604C12.154 6.54 12.162 6.452 12.162 6.34L12.126 5.224C12.126 5.08 12.138 4.996 12.162 4.972C12.186 4.948 12.198 4.92 12.198 4.888C12.198 4.848 12.154 4.784 12.066 4.696C11.978 4.6 11.934 4.516 11.934 4.444L12.126 4.012C12.158 3.916 12.174 3.608 12.174 3.088C12.174 2.568 12.166 2.308 12.15 2.308C11.926 2.308 11.714 2.436 11.514 2.692C11.314 2.94 11.17 3.192 11.082 3.448L10.95 3.832C10.79 3.832 10.626 3.788 10.458 3.7C10.29 3.612 10.162 3.524 10.074 3.436C9.98597 3.34 9.94197 3.272 9.94197 3.232C9.94197 3.184 10.022 2.784 10.182 2.032C10.35 1.272 10.454 0.887999 10.494 0.879999C10.87 0.919999 11.11 0.955999 11.214 0.987999C12.214 0.892 12.782 0.844 12.918 0.844L13.446 0.904C13.766 0.776 13.946 0.711999 13.986 0.711999C14.114 0.768 14.21 0.828 14.274 0.891999C14.338 0.947999 14.458 0.976 14.634 0.976ZM19.6462 4.972C19.7262 4.972 19.8862 4.872 20.1262 4.672C20.3742 4.472 20.4982 4.348 20.4982 4.3C20.4982 4.244 20.4702 4.164 20.4142 4.06C20.3582 3.948 20.3302 3.872 20.3302 3.832C20.3302 3.784 20.3702 3.708 20.4502 3.604C20.5302 3.5 20.5702 3.432 20.5702 3.4C20.5702 3.104 20.5342 2.852 20.4622 2.644C20.3982 2.436 20.3302 2.3 20.2582 2.236L20.1502 2.14C20.0382 2.14 19.8782 2.208 19.6702 2.344C19.4702 2.472 19.3702 2.56 19.3702 2.608V2.62C19.4182 2.692 19.4662 2.824 19.5142 3.016C19.5702 3.2 19.5982 3.376 19.5982 3.544C19.5982 3.56 19.5662 3.6 19.5022 3.664C19.4382 3.728 19.3982 3.76 19.3822 3.76C19.4302 4.136 19.4542 4.404 19.4542 4.564C19.4542 4.724 19.4502 4.82 19.4422 4.852C19.5062 4.932 19.5742 4.972 19.6462 4.972ZM22.8262 2.536C22.9062 2.536 22.9462 2.688 22.9462 2.992C22.9462 3.296 22.9262 3.572 22.8862 3.82C22.8542 4.068 22.8142 4.216 22.7662 4.264C22.3742 4.664 21.9182 5 21.3982 5.272C21.3582 5.352 21.3382 5.404 21.3382 5.428C21.3382 5.452 21.3462 5.464 21.3622 5.464C21.6342 5.464 21.9342 5.576 22.2622 5.8C22.5982 6.016 22.7662 6.192 22.7662 6.328C22.7502 6.44 22.7422 6.588 22.7422 6.772C22.7422 7.86 23.0062 8.668 23.5342 9.196V9.208C23.5342 9.28 23.3822 9.452 23.0782 9.724C22.7742 9.988 22.5782 10.12 22.4902 10.12C22.1622 10.12 21.8302 10.092 21.4942 10.036C21.1582 9.98 20.9422 9.904 20.8462 9.808C20.8382 9.8 20.8302 9.736 20.8222 9.616C20.7982 9.248 20.7742 9.024 20.7502 8.944C20.7502 8.928 20.7782 8.904 20.8342 8.872C21.0022 8.76 21.0862 8.64 21.0862 8.512C21.0862 8.44 21.0102 8.396 20.8582 8.38C20.7062 8.356 20.6302 8.328 20.6302 8.296C20.6302 8.04 20.5942 7.648 20.5222 7.12L20.4862 6.856C20.4622 6.76 20.4102 6.66 20.3302 6.556C20.2502 6.452 20.1742 6.376 20.1022 6.328L19.9942 6.244C19.8662 6.244 19.6822 6.336 19.4422 6.52L19.3222 6.604C19.3222 6.66 19.4182 6.816 19.6102 7.072C19.5062 7.6 19.4542 8.044 19.4542 8.404V8.536C19.4862 8.536 19.5262 8.564 19.5742 8.62C19.6222 8.668 19.6462 8.704 19.6462 8.728L19.7302 9.748C19.7302 9.812 19.7222 9.844 19.7062 9.844C19.5462 9.844 19.3142 9.932 19.0102 10.108C18.7142 10.284 18.4862 10.372 18.3262 10.372C18.3182 10.372 18.2742 10.364 18.1942 10.348C17.9142 10.292 17.7222 10.264 17.6182 10.264C17.4422 10.264 17.2222 10.136 16.9582 9.88L16.8262 9.76C16.9382 9.536 17.0062 9.124 17.0302 8.524L17.0422 8.224C17.0422 8.216 17.0742 8.196 17.1382 8.164C17.2102 8.124 17.2782 8.072 17.3422 8.008C17.4062 7.936 17.4382 7.864 17.4382 7.792C17.4382 7.736 17.3742 7.684 17.2462 7.636C17.1262 7.588 17.0662 7.548 17.0662 7.516C17.0662 7.1 17.0982 6.7 17.1622 6.316C17.2342 5.932 17.2702 5.72 17.2702 5.68C17.2702 5.64 17.2502 5.6 17.2102 5.56C17.1782 5.52 17.1582 5.344 17.1502 5.032C17.1422 3.968 17.0942 3.288 17.0062 2.992C17.0062 2.976 17.0422 2.948 17.1142 2.908C17.1862 2.86 17.2222 2.816 17.2222 2.776C17.2222 2.512 17.1022 2.16 16.8622 1.72C16.7902 1.584 16.7542 1.512 16.7542 1.504C16.7542 1.456 16.8582 1.368 17.0662 1.24C17.2822 1.104 17.5502 0.98 17.8702 0.868C18.1982 0.748 18.4822 0.688 18.7222 0.688C18.7862 0.688 18.8542 0.796 18.9262 1.012C18.9982 1.22 19.0342 1.38 19.0342 1.492C19.0662 1.524 19.0982 1.54 19.1302 1.54C19.1622 1.54 19.1862 1.532 19.2022 1.516C19.6502 1.084 19.8982 0.86 19.9462 0.844C20.3382 0.804 20.7502 0.784 21.1822 0.784C21.6222 0.784 21.8902 0.832 21.9862 0.927999C22.3862 1.32 22.5862 1.676 22.5862 1.996C22.3942 2.14 22.2982 2.276 22.2982 2.404C22.2982 2.508 22.3862 2.56 22.5622 2.56L22.8262 2.536ZM26.2726 7.564C26.2566 7.716 26.2486 7.98 26.2486 8.356C26.2486 8.732 26.3566 9.136 26.5726 9.568C26.5726 9.608 26.5246 9.66 26.4286 9.724C26.3406 9.788 26.2766 9.836 26.2366 9.868C26.1966 9.892 26.1406 9.932 26.0686 9.988C26.0046 10.044 25.9526 10.088 25.9126 10.12C25.8006 10.208 25.7206 10.252 25.6726 10.252C25.4406 10.252 25.0566 10.208 24.5206 10.12C23.9926 10.032 23.7286 9.944 23.7286 9.856C23.7286 9.808 23.7486 9.608 23.7886 9.256C23.8286 8.904 23.8526 8.708 23.8606 8.668L23.9446 8.5C24.0166 7.708 24.0526 7.188 24.0526 6.94C24.0526 6.692 24.0406 6.384 24.0166 6.016C24.0006 5.648 23.9806 5.36 23.9566 5.152C23.9406 4.936 23.9326 4.824 23.9326 4.816C23.9326 4.8 23.9646 4.772 24.0286 4.732C24.2046 4.612 24.2926 4.484 24.2926 4.348C24.2926 4.212 24.2246 4.112 24.0886 4.048C23.9606 3.976 23.8966 3.928 23.8966 3.904C23.8966 3.824 23.9166 3.64 23.9566 3.352C23.9966 3.056 24.0166 2.828 24.0166 2.668C24.0166 2.508 23.9646 2.284 23.8606 1.996C23.7646 1.708 23.7166 1.544 23.7166 1.504C23.7166 1.44 23.9006 1.296 24.2686 1.072C24.6446 0.839999 24.9086 0.723999 25.0606 0.723999C25.2206 0.723999 25.4806 0.775999 25.8406 0.879999C26.2006 0.976 26.3806 1.084 26.3806 1.204C26.3806 1.292 26.3366 1.512 26.2486 1.864C26.1606 2.216 26.1166 2.416 26.1166 2.464C26.1166 2.512 26.1406 2.556 26.1886 2.596C26.2446 2.628 26.2726 2.668 26.2726 2.716C26.1846 3.628 26.1406 4.244 26.1406 4.564C26.1406 4.876 26.1446 5.06 26.1526 5.116C26.1606 5.164 26.1846 5.22 26.2246 5.284C26.2646 5.348 26.2846 5.412 26.2846 5.476C26.2846 5.484 26.2206 5.54 26.0926 5.644C25.9726 5.748 25.9126 5.84 25.9126 5.92C25.9126 6 25.9806 6.096 26.1166 6.208C26.2526 6.32 26.3206 6.436 26.3206 6.556C26.2966 6.716 26.2806 6.804 26.2726 6.82C26.2726 6.828 26.2126 6.876 26.0926 6.964C25.9726 7.044 25.9126 7.1 25.9126 7.132V7.216C25.9126 7.32 25.9926 7.4 26.1526 7.456C26.2326 7.488 26.2726 7.524 26.2726 7.564ZM29.6124 0.939999L29.4324 2.116C29.5044 2.148 29.5404 2.188 29.5404 2.236V2.308L29.3964 3.196C29.3964 3.204 29.3924 3.216 29.3844 3.232V3.496C29.4004 3.752 29.4244 3.896 29.4564 3.928C29.5684 4.032 29.6404 4.084 29.6724 4.084C29.7044 4.084 29.7204 4.084 29.7204 4.084C29.7204 4.076 29.7284 4.068 29.7444 4.06C29.7604 4.044 29.8364 3.848 29.9724 3.472C30.1164 3.088 30.2044 2.884 30.2364 2.86C30.2684 2.828 30.3364 2.808 30.4404 2.8C30.5524 2.792 30.6244 2.772 30.6564 2.74C30.7044 2.652 30.7284 2.58 30.7284 2.524L30.6204 2.212C30.6204 2.204 30.6204 2.2 30.6204 2.2C30.6284 2.2 30.6324 2.196 30.6324 2.188C30.9284 1.652 31.1044 1.252 31.1604 0.987999C31.1684 0.947999 31.3764 0.855999 31.7844 0.711999C32.1924 0.567999 32.4204 0.495999 32.4684 0.495999C32.5164 0.495999 32.5604 0.515999 32.6004 0.555999C32.6484 0.595999 32.6924 0.615999 32.7324 0.615999L33.0204 0.58C33.0524 0.58 33.1524 0.636 33.3204 0.748C33.4964 0.852 33.5844 0.92 33.5844 0.952C33.5844 0.983999 33.5084 1.076 33.3564 1.228C33.2124 1.38 33.1324 1.472 33.1164 1.504C33.0204 1.696 32.9244 1.792 32.8284 1.792C32.7404 1.768 32.6884 1.756 32.6724 1.756C32.5044 1.844 32.4204 1.92 32.4204 1.984C32.4204 2.048 32.4404 2.112 32.4804 2.176C32.5284 2.24 32.5524 2.284 32.5524 2.308C32.5524 2.324 32.5044 2.384 32.4084 2.488C32.0964 2.848 31.8924 3.104 31.7964 3.256C31.3964 3.888 31.1964 4.244 31.1964 4.324C31.1964 4.356 31.4324 4.472 31.9044 4.672C32.0884 4.752 32.2524 4.888 32.3964 5.08C32.5484 5.264 32.6244 5.48 32.6244 5.728C32.6244 5.816 32.6404 5.924 32.6724 6.052C32.7044 6.172 32.7204 6.268 32.7204 6.34C32.7204 6.404 32.6844 6.472 32.6124 6.544C32.5404 6.68 32.5044 6.776 32.5044 6.832C32.5044 6.92 32.6324 7 32.8884 7.072C32.9204 7.112 32.9484 7.316 32.9724 7.684C32.9964 8.044 33.0084 8.328 33.0084 8.536C33.3604 9.024 33.5364 9.316 33.5364 9.412C33.5364 9.492 33.3004 9.632 32.8284 9.832C32.3644 10.032 32.0764 10.132 31.9644 10.132C31.8524 10.132 31.6684 10.088 31.4124 10C31.1564 9.912 31.0004 9.844 30.9444 9.796C30.8644 9.716 30.8004 9.44 30.7524 8.968L30.7284 8.728V8.716C30.7284 8.708 30.7764 8.668 30.8724 8.596C30.9684 8.524 31.0164 8.428 31.0164 8.308C31.0164 8.188 30.9124 8.128 30.7044 8.128H30.6804C30.6324 8.128 30.6084 8.032 30.6084 7.84V7.792L30.5244 6.712C30.5244 6.608 30.5324 6.536 30.5484 6.496V6.46C30.5484 6.332 30.4604 6.172 30.2844 5.98C30.1084 5.788 29.9204 5.692 29.7204 5.692C29.6724 5.692 29.6084 5.752 29.5284 5.872C29.4484 5.992 29.4084 6.072 29.4084 6.112C29.4084 6.144 29.4564 6.204 29.5524 6.292C29.6564 6.372 29.7084 6.436 29.7084 6.484C29.7084 6.524 29.6924 6.58 29.6604 6.652C29.6284 6.724 29.6124 6.88 29.6124 7.12V7.168C29.6124 7.264 29.6404 7.344 29.6964 7.408C29.7524 7.464 29.7804 7.508 29.7804 7.54C29.7804 7.572 29.7604 7.616 29.7204 7.672C29.6884 7.72 29.6404 7.764 29.5764 7.804C29.5204 7.86 29.4924 7.944 29.4924 8.056V8.104C29.4924 8.12 29.5244 8.156 29.5884 8.212C29.6604 8.26 29.6964 8.3 29.6964 8.332V8.344C29.6804 8.44 29.6724 8.552 29.6724 8.68L29.7204 9.628C29.7204 9.7 29.6084 9.772 29.3844 9.844C29.1604 9.916 28.9564 10.008 28.7724 10.12C28.5884 10.232 28.4124 10.288 28.2444 10.288C28.0764 10.288 27.8444 10.22 27.5484 10.084C27.2524 9.956 27.1044 9.848 27.1044 9.76L27.2604 8.392C27.2684 8.32 27.2724 8.204 27.2724 8.044L27.2364 7.012C27.2364 6.98 27.3004 6.928 27.4284 6.856C27.5644 6.776 27.6324 6.692 27.6324 6.604C27.6324 6.516 27.5564 6.424 27.4044 6.328C27.2524 6.224 27.1764 6.16 27.1764 6.136C27.1764 5.576 27.2124 4.996 27.2844 4.396L27.3204 4.096C27.2244 3.944 27.1764 3.592 27.1764 3.04C27.1764 3.032 27.2044 3.016 27.2604 2.992C27.3244 2.96 27.3564 2.916 27.3564 2.86C27.3564 2.596 27.3044 2.328 27.2004 2.056C27.1044 1.784 27.0564 1.612 27.0564 1.54C27.0564 1.46 27.2404 1.308 27.6084 1.084C27.9844 0.86 28.2484 0.748 28.4004 0.748L29.0724 0.771999C29.4324 0.82 29.6124 0.876 29.6124 0.939999ZM36.4458 4.432L38.4018 4.324C38.6498 4.324 38.7738 4.36 38.7738 4.432C38.7738 4.648 38.6818 4.988 38.4978 5.452C38.3138 5.908 38.1698 6.136 38.0658 6.136L37.8618 6.016C37.7258 5.944 37.5818 5.908 37.4298 5.908C36.8538 5.908 36.5418 5.932 36.4938 5.98C36.4458 6.028 36.4218 6.392 36.4218 7.072C36.4218 7.744 36.4858 8.144 36.6138 8.272C36.7418 8.4 37.0058 8.464 37.4058 8.464C37.8058 8.464 38.0578 8.412 38.1618 8.308C38.2738 8.196 38.3858 8.048 38.4978 7.864C38.6178 7.68 38.7138 7.524 38.7858 7.396C38.8578 7.26 38.8978 7.192 38.9058 7.192C38.9778 7.192 39.1138 7.292 39.3138 7.492C39.5218 7.692 39.6258 7.84 39.6258 7.936C39.6258 8.024 39.5378 8.352 39.3618 8.92C39.1938 9.48 39.0738 9.796 39.0018 9.868C38.9938 9.884 38.9618 9.892 38.9058 9.892L38.2218 9.82C37.9338 9.82 37.6938 9.832 37.5018 9.856C37.3098 9.872 37.1978 9.88 37.1658 9.88C37.1418 9.88 37.0778 9.856 36.9738 9.808C36.8778 9.76 36.8058 9.736 36.7578 9.736C36.7178 9.736 36.6818 9.748 36.6498 9.772C36.6258 9.796 36.6018 9.828 36.5778 9.868C36.5218 9.964 36.4498 10.012 36.3618 10.012L35.8578 9.952C35.6258 9.952 35.3738 9.98 35.1018 10.036C34.8378 10.092 34.6458 10.12 34.5258 10.12C34.4058 10.12 34.2578 10.096 34.0818 10.048C33.9138 10.008 33.8298 9.96 33.8298 9.904C33.8298 9.888 33.8498 9.808 33.8898 9.664C34.0178 9.216 34.0818 8.904 34.0818 8.728C34.0818 8.544 34.0738 8.424 34.0578 8.368C34.0578 8.36 34.1058 8.324 34.2018 8.26C34.3058 8.188 34.3578 8.096 34.3578 7.984C34.3578 7.872 34.2858 7.772 34.1418 7.684C33.9978 7.588 33.9258 7.536 33.9258 7.528L34.0338 7.024C34.1058 6.688 34.1418 6.46 34.1418 6.34C34.1418 6.22 34.1298 6.128 34.1058 6.064C34.0898 6 34.0818 5.964 34.0818 5.956V5.932C34.1458 5.628 34.1778 5.292 34.1778 4.924C34.1778 4.548 34.1618 4.2 34.1298 3.88C34.1058 3.552 34.0938 3.384 34.0938 3.376C34.0938 3.368 34.1338 3.332 34.2138 3.268C34.2938 3.204 34.3338 3.132 34.3338 3.052C34.3338 2.964 34.2938 2.844 34.2138 2.692C33.9898 2.236 33.8778 1.708 33.8778 1.108C33.8778 1.02 34.1538 0.944 34.7058 0.879999C35.2578 0.807999 35.7858 0.771999 36.2898 0.771999C36.3938 0.771999 36.4818 0.816 36.5538 0.904C36.6258 0.992 36.6858 1.036 36.7338 1.036C36.7898 1.036 37.0258 0.996 37.4418 0.916C37.8658 0.836 38.1978 0.796 38.4378 0.796C39.0218 0.796 39.3138 0.864 39.3138 0.999999C39.3138 1.232 39.2658 1.544 39.1698 1.936C39.0738 2.32 39.0018 2.536 38.9538 2.584C38.8738 2.68 38.6738 2.728 38.3538 2.728C38.3218 2.728 38.2778 2.672 38.2218 2.56C38.1738 2.44 38.0778 2.324 37.9338 2.212C37.7978 2.092 37.6458 2.032 37.4778 2.032C37.3098 2.032 37.1298 2.068 36.9378 2.14C36.7458 2.204 36.6258 2.26 36.5778 2.308C36.5298 2.356 36.5058 2.56 36.5058 2.92C36.5058 3.272 36.5258 3.536 36.5658 3.712V3.748C36.5658 3.804 36.4858 3.856 36.3258 3.904C36.1658 3.952 36.0858 4.108 36.0858 4.372C36.0858 4.412 36.2058 4.432 36.4458 4.432Z" fill="white"/>
</g>
<defs>
<filter id="filter0_d_4_3" x="0.0599976" y="0.496002" width="43.5658" height="17.876" filterUnits="userSpaceOnUse" color-interpolation-filters="sRGB">
<feFlood flood-opacity="0" result="BackgroundImageFix"/>
<feColorMatrix in="SourceAlpha" type="matrix" values="0 0 0 0 0 0 0 0 0 0 0 0 0 0 0 0 0 0 127 0" result="hardAlpha"/>
<feOffset dy="4"/>
<feGaussianBlur stdDeviation="2"/>
<feComposite in2="hardAlpha" operator="out"/>
<feColorMatrix type="matrix" values="0 0 0 0 0 0 0 0 0 0 0 0 0 0 0 0 0 0 0.25 0"/>
<feBlend mode="normal" in2="BackgroundImageFix" result="effect1_dropShadow_4_3"/>
<feBlend mode="normal" in="SourceGraphic" in2="effect1_dropShadow_4_3" result="shape"/>
</filter>
</defs>
</svg>
